<svg xmlns="http://www.w3.org/2000/svg" xml:space="preserve" width="2550" height="2550" shape-rendering="geometricPrecision" text-rendering="geometricPrecision" image-rendering="optimizeQuality" fill-rule="evenodd" clip-rule="evenodd" viewBox="0 0 773 773">
    <g fill="#1e90ff">
        <path d="M338 611c-88-19-157-88-176-176h61c10 0 19-8 19-18v-61c0-10-9-18-19-18h-61c19-88 88-157 176-176v61c0 10 8 19 18 19h61c10 0 18-9 18-19v-61c88 19 157 88 176 176h-62c-10 0-18 8-18 18v61c0 10 8 18 18 18h62c-19 88-88 157-176 176v-62c0-10-8-18-18-18h-61c-10 0-18 8-18 18v62zm435-194v-61c0-10-8-18-18-18h-46C688 197 576 85 435 64V18c0-10-8-18-18-18h-61c-10 0-18 8-18 18v46C197 85 85 197 64 338H18c-10 0-18 8-18 18v61c0 10 8 18 18 18h46c21 141 133 253 274 274v46c0 10 8 18 18 18h61c10 0 18-8 18-18v-46c141-21 253-133 274-274h46c10 0 18-8 18-18z"/>
        <path d="M281 356c3 20 29 35 61 40l76 13c9 1 16 6 16 12s-10 12-22 12h-49c-9 0-18-2-25-4-5-2-11-2-15 0l-25 14c-5 3-5 8 1 11 18 8 41 12 64 12v20c0 4 5 7 12 7h23c7 0 12-3 12-7v-20c34 0 67-12 78-30 16-26-11-52-54-59l-79-13c-9-1-16-6-16-12s10-12 22-12h49c9 0 18 2 25 4 5 2 11 2 14 0l26-15c5-2 5-7-1-10-18-8-41-12-64-12v-20c0-4-5-7-12-7h-23c-7 0-12 3-12 7v20h-2c-47 0-85 23-80 49z"/>
    </g>
</svg>